<mxfile host="app.diagrams.net" agent="Mozilla/5.0 (Windows NT 10.0; Win64; x64) AppleWebKit/537.36 (KHTML, like Gecko) Chrome/137.0.0.0 Safari/537.36 OPR/121.0.0.0" version="28.2.3">
  <diagram name="Page-1" id="6MU_nfiVqq9_GFy9cZ_-">
    <mxGraphModel dx="2021" dy="1163" grid="1" gridSize="10" guides="1" tooltips="1" connect="1" arrows="1" fold="1" page="1" pageScale="1" pageWidth="850" pageHeight="1100" math="0" shadow="0">
      <root>
        <mxCell id="0" />
        <mxCell id="1" parent="0" />
        <mxCell id="gQ38HdgrNg-ttCr0OfCo-1" value="End" style="ellipse;whiteSpace=wrap;html=1;aspect=fixed;" vertex="1" parent="1">
          <mxGeometry x="650" y="910" width="80" height="80" as="geometry" />
        </mxCell>
        <mxCell id="gQ38HdgrNg-ttCr0OfCo-12" style="edgeStyle=orthogonalEdgeStyle;rounded=0;orthogonalLoop=1;jettySize=auto;html=1;exitX=0.5;exitY=1;exitDx=0;exitDy=0;entryX=0.5;entryY=0;entryDx=0;entryDy=0;" edge="1" parent="1" source="gQ38HdgrNg-ttCr0OfCo-2" target="gQ38HdgrNg-ttCr0OfCo-3">
          <mxGeometry relative="1" as="geometry" />
        </mxCell>
        <mxCell id="gQ38HdgrNg-ttCr0OfCo-2" value="Start" style="ellipse;whiteSpace=wrap;html=1;aspect=fixed;" vertex="1" parent="1">
          <mxGeometry x="160" y="180" width="80" height="80" as="geometry" />
        </mxCell>
        <mxCell id="gQ38HdgrNg-ttCr0OfCo-13" style="edgeStyle=orthogonalEdgeStyle;rounded=0;orthogonalLoop=1;jettySize=auto;html=1;exitX=0.5;exitY=1;exitDx=0;exitDy=0;entryX=0.5;entryY=0;entryDx=0;entryDy=0;" edge="1" parent="1" source="gQ38HdgrNg-ttCr0OfCo-3" target="gQ38HdgrNg-ttCr0OfCo-4">
          <mxGeometry relative="1" as="geometry" />
        </mxCell>
        <mxCell id="gQ38HdgrNg-ttCr0OfCo-3" value="Select Profile" style="rounded=1;whiteSpace=wrap;html=1;" vertex="1" parent="1">
          <mxGeometry x="140" y="300" width="120" height="60" as="geometry" />
        </mxCell>
        <mxCell id="gQ38HdgrNg-ttCr0OfCo-14" style="edgeStyle=orthogonalEdgeStyle;rounded=0;orthogonalLoop=1;jettySize=auto;html=1;exitX=1;exitY=0.5;exitDx=0;exitDy=0;entryX=0;entryY=0.5;entryDx=0;entryDy=0;" edge="1" parent="1" source="gQ38HdgrNg-ttCr0OfCo-4" target="gQ38HdgrNg-ttCr0OfCo-6">
          <mxGeometry relative="1" as="geometry" />
        </mxCell>
        <mxCell id="gQ38HdgrNg-ttCr0OfCo-15" style="edgeStyle=orthogonalEdgeStyle;rounded=0;orthogonalLoop=1;jettySize=auto;html=1;exitX=0.5;exitY=1;exitDx=0;exitDy=0;entryX=0.5;entryY=0;entryDx=0;entryDy=0;" edge="1" parent="1" source="gQ38HdgrNg-ttCr0OfCo-4" target="gQ38HdgrNg-ttCr0OfCo-7">
          <mxGeometry relative="1" as="geometry" />
        </mxCell>
        <mxCell id="gQ38HdgrNg-ttCr0OfCo-4" value="Logged In?" style="rhombus;whiteSpace=wrap;html=1;" vertex="1" parent="1">
          <mxGeometry x="160" y="400" width="80" height="80" as="geometry" />
        </mxCell>
        <mxCell id="gQ38HdgrNg-ttCr0OfCo-16" style="edgeStyle=orthogonalEdgeStyle;rounded=0;orthogonalLoop=1;jettySize=auto;html=1;exitX=0.5;exitY=1;exitDx=0;exitDy=0;entryX=0.5;entryY=0;entryDx=0;entryDy=0;" edge="1" parent="1" source="gQ38HdgrNg-ttCr0OfCo-6" target="gQ38HdgrNg-ttCr0OfCo-7">
          <mxGeometry relative="1" as="geometry" />
        </mxCell>
        <mxCell id="gQ38HdgrNg-ttCr0OfCo-6" value="Log In" style="shape=process;whiteSpace=wrap;html=1;backgroundOutline=1;" vertex="1" parent="1">
          <mxGeometry x="300" y="420" width="120" height="60" as="geometry" />
        </mxCell>
        <mxCell id="gQ38HdgrNg-ttCr0OfCo-17" style="edgeStyle=orthogonalEdgeStyle;rounded=0;orthogonalLoop=1;jettySize=auto;html=1;exitX=1;exitY=0.5;exitDx=0;exitDy=0;entryX=0;entryY=0.5;entryDx=0;entryDy=0;" edge="1" parent="1" source="gQ38HdgrNg-ttCr0OfCo-7" target="gQ38HdgrNg-ttCr0OfCo-8">
          <mxGeometry relative="1" as="geometry" />
        </mxCell>
        <mxCell id="gQ38HdgrNg-ttCr0OfCo-7" value="Select Add Post" style="rounded=1;whiteSpace=wrap;html=1;" vertex="1" parent="1">
          <mxGeometry x="220" y="550" width="120" height="60" as="geometry" />
        </mxCell>
        <mxCell id="gQ38HdgrNg-ttCr0OfCo-18" style="edgeStyle=orthogonalEdgeStyle;rounded=0;orthogonalLoop=1;jettySize=auto;html=1;exitX=0.5;exitY=1;exitDx=0;exitDy=0;entryX=0.5;entryY=0;entryDx=0;entryDy=0;" edge="1" parent="1" source="gQ38HdgrNg-ttCr0OfCo-8" target="gQ38HdgrNg-ttCr0OfCo-9">
          <mxGeometry relative="1" as="geometry" />
        </mxCell>
        <mxCell id="gQ38HdgrNg-ttCr0OfCo-8" value="Add details for the post" style="rounded=1;whiteSpace=wrap;html=1;" vertex="1" parent="1">
          <mxGeometry x="450" y="550" width="120" height="60" as="geometry" />
        </mxCell>
        <mxCell id="gQ38HdgrNg-ttCr0OfCo-19" style="edgeStyle=orthogonalEdgeStyle;rounded=0;orthogonalLoop=1;jettySize=auto;html=1;exitX=1;exitY=0.5;exitDx=0;exitDy=0;entryX=0;entryY=0.5;entryDx=0;entryDy=0;" edge="1" parent="1" source="gQ38HdgrNg-ttCr0OfCo-9" target="gQ38HdgrNg-ttCr0OfCo-10">
          <mxGeometry relative="1" as="geometry" />
        </mxCell>
        <mxCell id="gQ38HdgrNg-ttCr0OfCo-9" value="Selects button to submit new post" style="rounded=1;whiteSpace=wrap;html=1;" vertex="1" parent="1">
          <mxGeometry x="450" y="670" width="120" height="60" as="geometry" />
        </mxCell>
        <mxCell id="gQ38HdgrNg-ttCr0OfCo-20" style="edgeStyle=orthogonalEdgeStyle;rounded=0;orthogonalLoop=1;jettySize=auto;html=1;exitX=0.5;exitY=1;exitDx=0;exitDy=0;entryX=0.5;entryY=0;entryDx=0;entryDy=0;" edge="1" parent="1" source="gQ38HdgrNg-ttCr0OfCo-10" target="gQ38HdgrNg-ttCr0OfCo-11">
          <mxGeometry relative="1" as="geometry" />
        </mxCell>
        <mxCell id="gQ38HdgrNg-ttCr0OfCo-10" value="Add Post to DB" style="shape=process;whiteSpace=wrap;html=1;backgroundOutline=1;" vertex="1" parent="1">
          <mxGeometry x="630" y="670" width="120" height="60" as="geometry" />
        </mxCell>
        <mxCell id="gQ38HdgrNg-ttCr0OfCo-21" style="edgeStyle=orthogonalEdgeStyle;rounded=0;orthogonalLoop=1;jettySize=auto;html=1;exitX=0.5;exitY=1;exitDx=0;exitDy=0;entryX=0.5;entryY=0;entryDx=0;entryDy=0;" edge="1" parent="1" source="gQ38HdgrNg-ttCr0OfCo-11" target="gQ38HdgrNg-ttCr0OfCo-1">
          <mxGeometry relative="1" as="geometry" />
        </mxCell>
        <mxCell id="gQ38HdgrNg-ttCr0OfCo-11" value="Return User to Profile page with updated posts" style="rounded=1;whiteSpace=wrap;html=1;" vertex="1" parent="1">
          <mxGeometry x="630" y="790" width="120" height="60" as="geometry" />
        </mxCell>
        <mxCell id="gQ38HdgrNg-ttCr0OfCo-22" value="No" style="text;html=1;align=center;verticalAlign=middle;whiteSpace=wrap;rounded=0;" vertex="1" parent="1">
          <mxGeometry x="240" y="410" width="60" height="30" as="geometry" />
        </mxCell>
        <mxCell id="gQ38HdgrNg-ttCr0OfCo-23" value="Yes" style="text;html=1;align=center;verticalAlign=middle;whiteSpace=wrap;rounded=0;" vertex="1" parent="1">
          <mxGeometry x="150" y="480" width="60" height="30" as="geometry" />
        </mxCell>
      </root>
    </mxGraphModel>
  </diagram>
</mxfile>
